<svg width="52" height="52" viewBox="0 0 52 52" fill="none" xmlns="http://www.w3.org/2000/svg">
<circle cx="26" cy="26" r="26" fill="#FF7F00"/>
<g clip-path="url(#clip0_0_11)">
<path d="M26 29.4667C27.9146 29.4667 29.4667 27.9146 29.4667 26C29.4667 24.0854 27.9146 22.5333 26 22.5333C24.0854 22.5333 22.5333 24.0854 22.5333 26C22.5333 27.9146 24.0854 29.4667 26 29.4667Z" fill="white"/>
<path d="M22.75 15.1667L20.7675 17.3333H17.3333C16.1417 17.3333 15.1667 18.3083 15.1667 19.5V32.5C15.1667 33.6917 16.1417 34.6667 17.3333 34.6667H34.6667C35.8583 34.6667 36.8333 33.6917 36.8333 32.5V19.5C36.8333 18.3083 35.8583 17.3333 34.6667 17.3333H31.2325L29.25 15.1667H22.75ZM26 31.4167C23.01 31.4167 20.5833 28.99 20.5833 26C20.5833 23.01 23.01 20.5833 26 20.5833C28.99 20.5833 31.4167 23.01 31.4167 26C31.4167 28.99 28.99 31.4167 26 31.4167Z" fill="white"/>
</g>
<defs>
<clipPath id="clip0_0_11">
<rect width="26" height="26" fill="white" transform="translate(13 13)"/>
</clipPath>
</defs>
</svg>
