<svg width="44" height="44" viewBox="0 0 44 44" fill="none" xmlns="http://www.w3.org/2000/svg">
<g filter="url(#filter0_d_0_11)">
<circle cx="22" cy="18" r="18" fill="#FF7F00"/>
</g>
<path d="M28.3749 23.0484L27.3333 13.2485C27.3333 12.6324 26.856 12.1333 26.2667 12.1333H22H17.7333C17.144 12.1333 16.6667 12.6324 16.6667 13.2485L15.6251 23.0484C15.6096 23.1248 15.6 23.2034 15.6 23.2848C15.6 23.901 16.0773 24.4 16.6667 24.4H22H27.3333C27.9227 24.4 28.4 23.901 28.4 23.2848C28.4 23.2034 28.3904 23.1248 28.3749 23.0484ZM24.6667 14.8699V15.4788C24.6667 17.016 23.4704 18.2667 22 18.2667C20.5296 18.2667 19.3333 17.016 19.3333 15.4788V14.8699C19.0235 14.7551 18.8 14.4484 18.8 14.0848C18.8 13.6232 19.1584 13.2485 19.6 13.2485C20.0416 13.2485 20.4 13.6232 20.4 14.0848V15.4788C20.4 16.401 21.1179 17.1515 22 17.1515C22.8821 17.1515 23.6 16.401 23.6 15.4788V14.0848C23.6 13.6232 23.9584 13.2485 24.4 13.2485C24.8416 13.2485 25.2 13.6232 25.2 14.0848C25.2 14.4484 24.9765 14.7551 24.6667 14.8699Z" fill="#F9F9F9"/>
<defs>
<filter id="filter0_d_0_11" x="0" y="0" width="44" height="44" filterUnits="userSpaceOnUse" color-interpolation-filters="sRGB">
<feFlood flood-opacity="0" result="BackgroundImageFix"/>
<feColorMatrix in="SourceAlpha" type="matrix" values="0 0 0 0 0 0 0 0 0 0 0 0 0 0 0 0 0 0 127 0" result="hardAlpha"/>
<feOffset dy="4"/>
<feGaussianBlur stdDeviation="2"/>
<feColorMatrix type="matrix" values="0 0 0 0 0.858824 0 0 0 0 0.188235 0 0 0 0 0.133333 0 0 0 0.16 0"/>
<feBlend mode="normal" in2="BackgroundImageFix" result="effect1_dropShadow_0_11"/>
<feBlend mode="normal" in="SourceGraphic" in2="effect1_dropShadow_0_11" result="shape"/>
</filter>
</defs>
</svg>
